<mxfile host="Electron" agent="Mozilla/5.0 (X11; Linux x86_64) AppleWebKit/537.36 (KHTML, like Gecko) draw.io/26.1.1 Chrome/132.0.6834.210 Electron/34.3.3 Safari/537.36" version="26.1.1">
  <diagram name="Page-1" id="AbWiR6KlKYDjYDEHgzt0">
    <mxGraphModel dx="1114" dy="665" grid="1" gridSize="10" guides="1" tooltips="1" connect="1" arrows="1" fold="1" page="1" pageScale="1" pageWidth="827" pageHeight="1169" math="0" shadow="0">
      <root>
        <mxCell id="0" />
        <mxCell id="1" parent="0" />
        <mxCell id="gLeST7yVDV8Fd2tpxM0s-9" style="edgeStyle=orthogonalEdgeStyle;rounded=0;orthogonalLoop=1;jettySize=auto;html=1;exitX=1;exitY=0.5;exitDx=0;exitDy=0;entryX=0;entryY=0.5;entryDx=0;entryDy=0;" edge="1" parent="1" source="gLeST7yVDV8Fd2tpxM0s-1" target="gLeST7yVDV8Fd2tpxM0s-4">
          <mxGeometry relative="1" as="geometry" />
        </mxCell>
        <mxCell id="gLeST7yVDV8Fd2tpxM0s-1" value="Создание MemoryIO из данных фаззера" style="rounded=0;whiteSpace=wrap;html=1;" vertex="1" parent="1">
          <mxGeometry x="150" y="67.5" width="140" height="60" as="geometry" />
        </mxCell>
        <mxCell id="gLeST7yVDV8Fd2tpxM0s-8" style="edgeStyle=orthogonalEdgeStyle;rounded=0;orthogonalLoop=1;jettySize=auto;html=1;exitX=1;exitY=0.5;exitDx=0;exitDy=0;entryX=0;entryY=0.5;entryDx=0;entryDy=0;" edge="1" parent="1" source="gLeST7yVDV8Fd2tpxM0s-3" target="gLeST7yVDV8Fd2tpxM0s-1">
          <mxGeometry relative="1" as="geometry" />
        </mxCell>
        <mxCell id="gLeST7yVDV8Fd2tpxM0s-3" value="" style="ellipse;whiteSpace=wrap;html=1;aspect=fixed;" vertex="1" parent="1">
          <mxGeometry x="60" y="82.5" width="30" height="30" as="geometry" />
        </mxCell>
        <mxCell id="gLeST7yVDV8Fd2tpxM0s-10" style="edgeStyle=orthogonalEdgeStyle;rounded=0;orthogonalLoop=1;jettySize=auto;html=1;exitX=1;exitY=0.5;exitDx=0;exitDy=0;entryX=0;entryY=0.5;entryDx=0;entryDy=0;" edge="1" parent="1" source="gLeST7yVDV8Fd2tpxM0s-4" target="gLeST7yVDV8Fd2tpxM0s-5">
          <mxGeometry relative="1" as="geometry" />
        </mxCell>
        <mxCell id="gLeST7yVDV8Fd2tpxM0s-4" value="Открытие тома файловой системы" style="rounded=0;whiteSpace=wrap;html=1;" vertex="1" parent="1">
          <mxGeometry x="340" y="65" width="140" height="65" as="geometry" />
        </mxCell>
        <mxCell id="gLeST7yVDV8Fd2tpxM0s-11" style="edgeStyle=orthogonalEdgeStyle;rounded=0;orthogonalLoop=1;jettySize=auto;html=1;exitX=1;exitY=0.5;exitDx=0;exitDy=0;entryX=0;entryY=0.5;entryDx=0;entryDy=0;" edge="1" parent="1" source="gLeST7yVDV8Fd2tpxM0s-5" target="gLeST7yVDV8Fd2tpxM0s-6">
          <mxGeometry relative="1" as="geometry" />
        </mxCell>
        <mxCell id="gLeST7yVDV8Fd2tpxM0s-5" value="FsFuzzTest()" style="shape=process;whiteSpace=wrap;html=1;backgroundOutline=1;" vertex="1" parent="1">
          <mxGeometry x="530" y="72.5" width="120" height="50" as="geometry" />
        </mxCell>
        <mxCell id="gLeST7yVDV8Fd2tpxM0s-6" value="" style="ellipse;whiteSpace=wrap;html=1;aspect=fixed;" vertex="1" parent="1">
          <mxGeometry x="700" y="82.5" width="30" height="30" as="geometry" />
        </mxCell>
      </root>
    </mxGraphModel>
  </diagram>
</mxfile>
